<?xml version="1.0" encoding="UTF-8" standalone="no"?>
<!-- Created with Inkscape (http://www.inkscape.org/) -->

<svg
   width="120"
   height="120"
   viewBox="0 0 31.75 31.75"
   version="1.1"
   id="svg5"
   inkscape:version="1.1 (c68e22c387, 2021-05-23)"
   sodipodi:docname="icon.svg"
   xmlns:inkscape="http://www.inkscape.org/namespaces/inkscape"
   xmlns:sodipodi="http://sodipodi.sourceforge.net/DTD/sodipodi-0.dtd"
   xmlns="http://www.w3.org/2000/svg"
   xmlns:svg="http://www.w3.org/2000/svg">
  <sodipodi:namedview
     id="namedview7"
     pagecolor="#ffffff"
     bordercolor="#999999"
     borderopacity="1"
     inkscape:pageshadow="0"
     inkscape:pageopacity="0"
     inkscape:pagecheckerboard="0"
     inkscape:document-units="px"
     showgrid="false"
     inkscape:snap-global="false"
     inkscape:zoom="3.0583333"
     inkscape:cx="69.645777"
     inkscape:cy="79.618529"
     inkscape:window-width="1280"
     inkscape:window-height="961"
     inkscape:window-x="-8"
     inkscape:window-y="-8"
     inkscape:window-maximized="1"
     inkscape:current-layer="layer5" />
  <defs
     id="defs2" />
  <g
     inkscape:groupmode="layer"
     id="layer2"
     inkscape:label="icon"
     style="opacity:1"
     sodipodi:insensitive="true">
    <g
       inkscape:groupmode="layer"
       id="layer4"
       inkscape:label="back"
       style="opacity:1"
       sodipodi:insensitive="true">
      <rect
         style="fill:#000080;stroke-width:1.7788;stroke-linecap:round;stroke-linejoin:round;paint-order:stroke fill markers"
         id="rect3244"
         width="31.75"
         height="31.75"
         x="0"
         y="0"
         ry="11.02202" />
    </g>
    <g
       inkscape:groupmode="layer"
       id="layer5"
       inkscape:label="commits"
       sodipodi:insensitive="true">
      <g
         id="g3464">
        <path
           id="rect2650"
           style="fill:#ffffff;stroke-width:0.442343;stroke-linecap:round;stroke-linejoin:round;paint-order:stroke fill markers"
           d="m -0.29938405,17.434225 -0.01,-2.331858 6.67002415,-0.028 a 2.9322487,2.9322487 0 0 1 0.6658689,-1.032813 2.9322487,2.9322487 0 0 1 3.194903,-0.635063 l 7.383399,-7.2929691 a 2.9322487,2.9322487 0 0 1 0.588414,-3.298103 2.9322487,2.9322487 0 0 1 4.147138,-7.09e-4 2.9322487,2.9322487 0 0 1 4.76e-4,4.1469026 2.9322487,2.9322487 0 0 1 -2.995449,0.7102309 l -7.471195,7.3793936 4.875301,-0.02045 3e-6,0.01495 0.75829,-0.0032 a 2.9322487,2.9322487 0 0 1 0.632254,-0.947798 2.9322487,2.9322487 0 0 1 4.146671,-7.11e-4 2.9322487,2.9322487 0 0 1 9.43e-4,4.146905 2.9322487,2.9322487 0 0 1 -4.146904,4.76e-4 2.9322487,2.9322487 0 0 1 -0.598468,-0.867251 l -5.808046,0.02435 a 2.9322487,2.9322487 0 0 1 -0.56035,0.788981 2.9322487,2.9322487 0 0 1 -4.146671,7.12e-4 2.9322487,2.9322487 0 0 1 -0.5501089,-0.767541 l -1.256892,0.0054 -2e-6,-0.01495 z" />
        <path
           id="rect2650-1"
           style="fill:#ffffff;stroke-width:0.141001;stroke-linecap:round;stroke-linejoin:round;paint-order:stroke fill markers"
           d="m 10.126007,18.144428 -0.4751291,0.57163 1.6352501,1.358861 a 0.93468457,0.93468457 0 0 0 -0.04553,0.389055 0.93468457,0.93468457 0 0 0 0.657261,0.80383 l 0.338148,3.290753 a 0.93468457,0.93468457 0 0 0 -0.523758,0.930645 0.93468457,0.93468457 0 0 0 1.020105,0.840786 0.93468457,0.93468457 0 0 0 0.84068,-1.020094 A 0.93468457,0.93468457 0 0 0 12.980078,24.528 l -0.342229,-3.32981 1.195252,0.993224 0.003,-0.0037 0.185913,0.154474 a 0.93468457,0.93468457 0 0 0 -0.03657,0.361326 0.93468457,0.93468457 0 0 0 1.01999,0.840692 0.93468457,0.93468457 0 0 0 0.840795,-1.02 0.93468457,0.93468457 0 0 0 -1.020092,-0.840681 0.93468457,0.93468457 0 0 0 -0.323013,0.09208 l -1.423889,-1.183312 a 0.93468457,0.93468457 0 0 0 0.02207,-0.30768 0.93468457,0.93468457 0 0 0 -1.019989,-0.840691 0.93468457,0.93468457 0 0 0 -0.290912,0.07732 l -0.308131,-0.256081 -0.003,0.0037 z" />
        <path
           id="rect2650-3"
           style="fill:#ffffff;stroke-width:0.241449;stroke-linecap:round;stroke-linejoin:round;paint-order:stroke fill markers"
           d="m 20.713662,15.591152 -1.056166,0.710365 2.032295,3.020794 a 1.6005393,1.6005393 0 0 0 -0.262276,0.617355 1.6005393,1.6005393 0 0 0 0.692716,1.637534 l -1.029889,5.570299 a 1.6005393,1.6005393 0 0 0 -1.309038,1.276883 1.6005393,1.6005393 0 0 0 1.271136,1.873083 1.6005393,1.6005393 0 0 0 1.872905,-1.271168 1.6005393,1.6005393 0 0 0 -0.59762,-1.570505 l 1.042,-5.636445 1.485467,2.207976 0.0068,-0.0046 0.231076,0.343403 a 1.6005393,1.6005393 0 0 0 -0.23419,0.576109 1.6005393,1.6005393 0 0 0 1.270991,1.872873 1.6005393,1.6005393 0 0 0 1.87305,-1.270958 1.6005393,1.6005393 0 0 0 -1.271169,-1.872905 1.6005393,1.6005393 0 0 0 -0.575136,-0.0044 l -1.769686,-2.630392 a 1.6005393,1.6005393 0 0 0 0.184511,-0.494948 1.6005393,1.6005393 0 0 0 -1.270991,-1.872873 1.6005393,1.6005393 0 0 0 -0.515279,-0.01311 l -0.382947,-0.569246 -0.0068,0.0046 z" />
        <path
           id="rect2650-3-4"
           style="fill:#ffffff;stroke-width:0.241449;stroke-linecap:round;stroke-linejoin:round;paint-order:stroke fill markers"
           d="m 20.117579,15.168132 0.67073,1.081771 3.094053,-1.918921 a 1.6005393,1.6005393 0 0 0 0.607208,0.284981 1.6005393,1.6005393 0 0 0 1.662088,-0.631538 l 5.52829,1.235671 a 1.6005393,1.6005393 0 0 0 1.227478,1.355472 1.6005393,1.6005393 0 0 0 1.918919,-1.200824 1.6005393,1.6005393 0 0 0 -1.200863,-1.918742 1.6005393,1.6005393 0 0 0 -1.591579,0.538993 l -5.593945,-1.250223 2.261522,-1.402603 -0.0044,-0.007 0.351733,-0.218185 a 1.6005393,1.6005393 0 0 0 0.567032,0.255384 1.6005393,1.6005393 0 0 0 1.9187,-1.200692 1.6005393,1.6005393 0 0 0 -1.200652,-1.918876 1.6005393,1.6005393 0 0 0 -1.918737,1.200872 1.6005393,1.6005393 0 0 0 -0.0257,0.574578 l -2.694198,1.670943 a 1.6005393,1.6005393 0 0 0 -0.487768,-0.202732 1.6005393,1.6005393 0 0 0 -1.9187,1.200692 1.6005393,1.6005393 0 0 0 -0.03221,0.514439 l -0.583052,0.36158 0.0044,0.007 z" />
      </g>
    </g>
  </g>
</svg>
